<svg width="1920" height="1080" viewBox="0 0 1920 1080" fill="none" xmlns="http://www.w3.org/2000/svg">
<rect x="2" y="0.999084" width="1918" height="1079" fill="#D9D9D9"/>
<g filter="url(#filter0_n_162_141)">
<rect x="2" width="1918" height="1080" fill="#F8F8EB"/>
</g>
<g filter="url(#filter1_n_162_141)">
<rect width="1920" height="1080" fill="url(#paint0_linear_162_141)"/>
</g>
<path d="M139.701 961.602L147.867 934.093L162.799 936.318L143.434 975.559L114.971 963.625C114.582 962.074 115.017 958.487 119.87 956.545C124.723 954.603 135.113 959.107 139.701 961.602Z" fill="url(#paint1_linear_162_141)"/>
<path d="M199.436 965.902L198.965 937.499L214.046 936.239L207.274 978.516L176.191 973.496C175.346 972.088 174.677 968.528 178.769 965.548C182.862 962.567 194.253 964.542 199.436 965.902Z" fill="url(#paint2_linear_162_141)"/>
<g filter="url(#filter2_di_162_141)">
<path d="M214.717 863.075C197.224 826.468 131.428 827.69 121.853 878.662C69.7626 876.047 67.0059 925.842 86.5817 934.906C106.209 943.994 239.9 949.335 281.2 937.499C322.499 925.663 290.074 889.966 272.108 895.632C272.114 860.034 231.75 853.971 214.717 863.075Z" fill="url(#paint3_linear_162_141)"/>
</g>
<g filter="url(#filter3_f_162_141)">
<ellipse cx="122.794" cy="910.224" rx="9.7989" ry="8.49558" fill="#F4BEA8"/>
</g>
<g filter="url(#filter4_f_162_141)">
<ellipse cx="225.916" cy="911.842" rx="9.7989" ry="8.49558" fill="#F4BEA8"/>
</g>
<path d="M160.123 920.338C164.323 923.979 175.988 929.076 187.187 920.338" stroke="#202020" stroke-width="5" stroke-linecap="round"/>
<path d="M188.194 889.332C187.847 889.901 187.758 890.562 187.982 891.187C188.204 891.811 188.722 892.347 189.384 892.661C190.046 892.974 190.789 893.034 191.412 892.81C192.038 892.588 192.493 892.099 192.713 891.47C192.752 891.289 192.842 891.065 192.962 890.843C194.869 887.224 201.483 887.264 206.511 889.332L206.783 889.504L207.163 889.267C208.301 888.172 209.439 887.077 210.578 885.982C210.869 885.702 211.16 885.422 211.451 885.142C211.109 885.356 210.766 885.57 210.424 885.784C209.085 886.623 207.746 887.461 206.407 888.299L207.058 888.233C202.468 885.374 195.135 882.197 189.219 887.919C188.846 888.33 188.498 888.788 188.194 889.332Z" fill="#141414"/>
<path d="M162.383 889.332C162.729 889.901 162.819 890.562 162.594 891.187C162.372 891.811 161.855 892.347 161.192 892.661C160.53 892.974 159.787 893.034 159.164 892.81C158.539 892.588 158.084 892.099 157.863 891.47C157.824 891.289 157.735 891.065 157.614 890.843C155.707 887.224 149.094 887.264 144.065 889.332L143.794 889.504L143.414 889.267C142.275 888.172 141.137 887.077 139.999 885.982C139.708 885.702 139.416 885.422 139.125 885.142C139.468 885.356 139.81 885.57 140.152 885.784C141.491 886.623 142.83 887.461 144.169 888.299L143.518 888.233C148.108 885.374 155.442 882.197 161.357 887.919C161.73 888.33 162.078 888.788 162.383 889.332Z" fill="#141414"/>
<g filter="url(#filter5_n_162_141)">
<path d="M240.482 201.589C240.482 228.814 216.912 250.884 187.838 250.884C158.764 250.884 135.195 228.814 135.195 201.589C135.195 174.365 158.764 139.674 187.838 139.674C216.912 139.674 240.482 174.365 240.482 201.589Z" fill="url(#paint4_linear_162_141)"/>
</g>
<path d="M187.599 295.22V233.247M187.599 233.247L169.652 221.489M187.599 233.247L206.024 213.65" stroke="url(#paint5_linear_162_141)" stroke-width="10" stroke-linecap="round"/>
<g filter="url(#filter6_n_162_141)">
<path d="M119.972 239.03C119.972 258.054 103.502 273.476 83.185 273.476C62.8681 273.476 46.3979 258.054 46.3979 239.03C46.3979 220.006 62.8681 195.764 83.185 195.764C103.502 195.764 119.972 220.006 119.972 239.03Z" fill="url(#paint6_linear_162_141)"/>
</g>
<path d="M83.0183 304.459V261.152M83.0183 261.152L70.4773 252.936M83.0183 261.152L95.8938 247.458" stroke="url(#paint7_linear_162_141)" stroke-width="10" stroke-linecap="round"/>
<rect width="8.19384" height="12.9388" transform="matrix(0.958806 -0.295676 0.377982 0.921335 1562.84 97.0131)" fill="#AAAAAA"/>
<path d="M1566.08 111.354C1564.43 107.736 1566.21 103.747 1570.02 102.532C1573.83 101.317 1578.17 103.359 1579.61 107.047L1589.7 132.847C1590.93 136.004 1589.32 139.346 1586.05 140.385C1582.79 141.424 1579.06 139.783 1577.65 136.683L1566.08 111.354Z" fill="url(#paint8_linear_162_141)"/>
<g filter="url(#filter7_di_162_141)">
<ellipse cx="29.4974" cy="25.6508" rx="29.4974" ry="25.6508" transform="matrix(0.999686 -0.0490676 0.0653069 0.996682 1528.42 49.5971)" fill="#5A8289"/>
</g>
<g filter="url(#filter8_i_162_141)">
<ellipse cx="22.2098" cy="19.3136" rx="22.2098" ry="19.3136" transform="matrix(0.999683 -0.0491524 0.0651946 0.996691 1536.48 55.839)" fill="#D4FEFF" fill-opacity="0.8"/>
</g>
<g filter="url(#filter9_in_162_141)">
<path d="M1639.13 92.1561C1634.43 76.5999 1633.53 66.8364 1630.95 63.1211C1649.39 80.0645 1673.05 91.5646 1690.74 84.9923C1707.61 78.7206 1718.68 47.3712 1711.88 27.4525C1711.5 26.4933 1711.14 25.5646 1710.78 24.6718C1711.19 25.5698 1711.56 26.4981 1711.88 27.4525C1719.86 47.6078 1733.43 81.2936 1756.74 80.6375C1781.17 79.9503 1813.35 57.6155 1826.39 46.534C1819.35 54.4946 1805.66 75.8741 1807.29 97.7071C1808.82 118.299 1850.41 119.779 1874.54 117.736C1875.97 117.576 1877.36 117.442 1878.7 117.332C1877.38 117.478 1875.99 117.613 1874.54 117.736C1850.83 120.391 1815.36 130.199 1814.35 153.322C1813.67 168.666 1818.04 180.933 1820.22 188.919C1807.21 175.524 1798.91 174.408 1788.08 179.679C1772.97 187.039 1763.93 219.053 1761.08 239.67C1759.34 217.554 1743.49 184.87 1725.56 186.131C1706.22 187.491 1693.96 224.657 1686.81 237.218C1687.53 220.908 1690.74 183.129 1684.82 176.271C1676.5 166.614 1654.79 171.364 1642.45 181.535C1665.05 136.544 1572.55 150.098 1571.57 123.967C1595.16 135.185 1648.82 124.24 1639.13 92.1561Z" fill="url(#paint9_linear_162_141)"/>
</g>
<g filter="url(#filter10_in_162_141)">
<ellipse cx="68.8827" cy="42.4111" rx="68.8827" ry="42.4111" transform="matrix(0.999456 0.032993 -0.0438742 0.999037 1657.77 84.7173)" fill="#F7E633"/>
</g>
<g filter="url(#filter11_d_162_141)">
<path d="M1694.21 119.982C1694.96 120.014 1695.71 120.046 1696.46 120.077C1696.6 119.831 1696.74 119.597 1696.89 119.377C1697.57 118.392 1698.4 117.608 1699.15 117.107C1699.53 116.86 1699.89 116.701 1700.09 116.67C1700.31 116.631 1700.24 116.741 1700.07 116.698C1699.91 116.656 1699.95 116.569 1700.18 116.749C1700.41 116.915 1700.72 117.268 1701.03 117.702C1701.66 118.577 1702.32 119.73 1703.01 120.962C1703.16 121.229 1703.32 121.511 1703.48 121.807C1704.22 121.734 1704.97 121.661 1705.72 121.588C1705.8 121.245 1705.88 120.91 1705.94 120.582C1706.23 119.065 1706.3 117.498 1705.89 115.791C1705.44 114.193 1704.56 111.781 1701.37 110.873C1698.08 110.219 1696.08 112.215 1695.11 113.702C1694.1 115.31 1693.74 117.114 1693.96 118.851C1694.01 119.236 1694.09 119.616 1694.21 119.982Z" fill="#404040"/>
</g>
<g filter="url(#filter12_d_162_141)">
<path d="M1753.06 121.971C1752.31 122.008 1751.56 122.045 1750.81 122.082C1750.66 121.783 1750.51 121.505 1750.35 121.235C1748.99 118.885 1746.41 117.253 1745.78 117.355C1745.68 117.364 1745.79 117.289 1745.65 117.303C1745.51 117.321 1745.2 117.551 1744.89 117.966C1744.27 118.778 1743.68 120.139 1743.14 121.55C1743.02 121.858 1742.9 122.184 1742.78 122.531C1742.03 122.531 1741.28 122.532 1740.53 122.533C1740.4 122.157 1740.28 121.788 1740.18 121.427C1739.73 119.761 1739.5 117.919 1740.04 115.896C1740.33 114.875 1740.85 113.752 1741.92 112.79C1742.96 111.816 1744.67 111.243 1746.13 111.384C1751.91 112.378 1753.49 117.134 1753.27 120.753C1753.23 121.17 1753.16 121.573 1753.06 121.971Z" fill="#404040"/>
</g>
<path d="M1711.75 146.947C1716.6 151.485 1727.81 152.697 1734.44 147.696" stroke="#404040" stroke-width="6" stroke-linecap="round"/>
<g filter="url(#filter13_n_162_141)">
<path d="M1755.98 492.755C1779.38 362.801 1852.06 358.651 1863.23 492.755H1755.98Z" fill="url(#paint10_linear_162_141)"/>
</g>
<g filter="url(#filter14_n_162_141)">
<path d="M1698.01 492.674C1723.36 426.124 1770.34 370.332 1805.26 492.674H1698.01Z" fill="url(#paint11_linear_162_141)"/>
</g>
<defs>
<filter id="filter0_n_162_141" x="2" y="0" width="1918" height="1080" filterUnits="userSpaceOnUse" color-interpolation-filters="sRGB">
<feFlood flood-opacity="0" result="BackgroundImageFix"/>
<feBlend mode="normal" in="SourceGraphic" in2="BackgroundImageFix" result="shape"/>
<feTurbulence type="fractalNoise" baseFrequency="2 2" stitchTiles="stitch" numOctaves="3" result="noise" seed="377" />
<feColorMatrix in="noise" type="luminanceToAlpha" result="alphaNoise" />
<feComponentTransfer in="alphaNoise" result="coloredNoise1">
<feFuncA type="discrete" tableValues="1 1 1 1 1 1 1 1 1 1 1 1 1 1 1 1 1 1 1 1 1 1 1 1 1 1 1 1 1 1 1 1 1 1 1 1 1 1 1 1 1 1 1 1 1 1 1 1 1 1 1 0 0 0 0 0 0 0 0 0 0 0 0 0 0 0 0 0 0 0 0 0 0 0 0 0 0 0 0 0 0 0 0 0 0 0 0 0 0 0 0 0 0 0 0 0 0 0 0 0 "/>
</feComponentTransfer>
<feComposite operator="in" in2="shape" in="coloredNoise1" result="noise1Clipped" />
<feFlood flood-color="rgba(227, 227, 227, 0.25)" result="color1Flood" />
<feComposite operator="in" in2="noise1Clipped" in="color1Flood" result="color1" />
<feMerge result="effect1_noise_162_141">
<feMergeNode in="shape" />
<feMergeNode in="color1" />
</feMerge>
</filter>
<filter id="filter1_n_162_141" x="0" y="0" width="1920" height="1080" filterUnits="userSpaceOnUse" color-interpolation-filters="sRGB">
<feFlood flood-opacity="0" result="BackgroundImageFix"/>
<feBlend mode="normal" in="SourceGraphic" in2="BackgroundImageFix" result="shape"/>
<feTurbulence type="fractalNoise" baseFrequency="2 2" stitchTiles="stitch" numOctaves="3" result="noise" seed="5103" />
<feColorMatrix in="noise" type="luminanceToAlpha" result="alphaNoise" />
<feComponentTransfer in="alphaNoise" result="coloredNoise1">
<feFuncA type="discrete" tableValues="0 0 0 0 1 1 1 1 1 1 1 1 1 1 1 1 1 1 1 1 1 1 1 1 1 1 1 1 1 1 1 1 1 1 1 1 1 1 1 1 1 1 1 1 1 0 0 0 0 0 0 0 0 0 0 0 0 0 0 0 0 0 0 0 0 0 0 0 0 0 0 0 0 0 0 0 0 0 0 0 0 0 0 0 0 0 0 0 0 0 0 0 0 0 0 0 0 0 0 0 "/>
</feComponentTransfer>
<feComposite operator="in" in2="shape" in="coloredNoise1" result="noise1Clipped" />
<feFlood flood-color="rgba(0, 0, 0, 0.25)" result="color1Flood" />
<feComposite operator="in" in2="noise1Clipped" in="color1Flood" result="color1" />
<feMerge result="effect1_noise_162_141">
<feMergeNode in="shape" />
<feMergeNode in="color1" />
</feMerge>
</filter>
<filter id="filter2_di_162_141" x="75.3826" y="837.723" width="233.873" height="114.598" filterUnits="userSpaceOnUse" color-interpolation-filters="sRGB">
<feFlood flood-opacity="0" result="BackgroundImageFix"/>
<feColorMatrix in="SourceAlpha" type="matrix" values="0 0 0 0 0 0 0 0 0 0 0 0 0 0 0 0 0 0 127 0" result="hardAlpha"/>
<feOffset dx="4" dy="4"/>
<feGaussianBlur stdDeviation="2"/>
<feComposite in2="hardAlpha" operator="out"/>
<feColorMatrix type="matrix" values="0 0 0 0 0 0 0 0 0 0 0 0 0 0 0 0 0 0 0.25 0"/>
<feBlend mode="normal" in2="BackgroundImageFix" result="effect1_dropShadow_162_141"/>
<feBlend mode="normal" in="SourceGraphic" in2="effect1_dropShadow_162_141" result="shape"/>
<feColorMatrix in="SourceAlpha" type="matrix" values="0 0 0 0 0 0 0 0 0 0 0 0 0 0 0 0 0 0 127 0" result="hardAlpha"/>
<feOffset dx="5" dy="5"/>
<feGaussianBlur stdDeviation="2"/>
<feComposite in2="hardAlpha" operator="arithmetic" k2="-1" k3="1"/>
<feColorMatrix type="matrix" values="0 0 0 0 0.0941176 0 0 0 0 0.184314 0 0 0 0 0.654902 0 0 0 0.8 0"/>
<feBlend mode="normal" in2="shape" result="effect2_innerShadow_162_141"/>
</filter>
<filter id="filter3_f_162_141" x="97.9954" y="886.728" width="49.5979" height="46.9912" filterUnits="userSpaceOnUse" color-interpolation-filters="sRGB">
<feFlood flood-opacity="0" result="BackgroundImageFix"/>
<feBlend mode="normal" in="SourceGraphic" in2="BackgroundImageFix" result="shape"/>
<feGaussianBlur stdDeviation="7.5" result="effect1_foregroundBlur_162_141"/>
</filter>
<filter id="filter4_f_162_141" x="201.117" y="888.346" width="49.5979" height="46.9911" filterUnits="userSpaceOnUse" color-interpolation-filters="sRGB">
<feFlood flood-opacity="0" result="BackgroundImageFix"/>
<feBlend mode="normal" in="SourceGraphic" in2="BackgroundImageFix" result="shape"/>
<feGaussianBlur stdDeviation="7.5" result="effect1_foregroundBlur_162_141"/>
</filter>
<filter id="filter5_n_162_141" x="135.195" y="139.674" width="105.287" height="111.209" filterUnits="userSpaceOnUse" color-interpolation-filters="sRGB">
<feFlood flood-opacity="0" result="BackgroundImageFix"/>
<feBlend mode="normal" in="SourceGraphic" in2="BackgroundImageFix" result="shape"/>
<feTurbulence type="fractalNoise" baseFrequency="2 2" stitchTiles="stitch" numOctaves="3" result="noise" seed="3881" />
<feColorMatrix in="noise" type="luminanceToAlpha" result="alphaNoise" />
<feComponentTransfer in="alphaNoise" result="coloredNoise1">
<feFuncA type="discrete" tableValues="0 0 0 0 0 0 0 0 0 1 1 1 1 1 1 1 1 1 1 1 1 1 1 1 1 1 1 1 1 1 1 1 1 1 1 1 1 1 1 1 0 0 0 0 0 0 0 0 0 0 0 0 0 0 0 0 0 0 0 0 0 0 0 0 0 0 0 0 0 0 0 0 0 0 0 0 0 0 0 0 0 0 0 0 0 0 0 0 0 0 0 0 0 0 0 0 0 0 0 0 "/>
</feComponentTransfer>
<feComposite operator="in" in2="shape" in="coloredNoise1" result="noise1Clipped" />
<feFlood flood-color="rgba(22, 39, 6, 0.5)" result="color1Flood" />
<feComposite operator="in" in2="noise1Clipped" in="color1Flood" result="color1" />
<feMerge result="effect1_noise_162_141">
<feMergeNode in="shape" />
<feMergeNode in="color1" />
</feMerge>
</filter>
<filter id="filter6_n_162_141" x="46.3979" y="195.764" width="73.574" height="77.7126" filterUnits="userSpaceOnUse" color-interpolation-filters="sRGB">
<feFlood flood-opacity="0" result="BackgroundImageFix"/>
<feBlend mode="normal" in="SourceGraphic" in2="BackgroundImageFix" result="shape"/>
<feTurbulence type="fractalNoise" baseFrequency="2 2" stitchTiles="stitch" numOctaves="3" result="noise" seed="5761" />
<feColorMatrix in="noise" type="luminanceToAlpha" result="alphaNoise" />
<feComponentTransfer in="alphaNoise" result="coloredNoise1">
<feFuncA type="discrete" tableValues="1 1 1 1 1 1 1 1 1 1 1 1 1 1 1 1 1 1 1 1 1 1 1 1 1 1 1 1 1 1 1 1 1 1 1 1 1 1 1 1 1 1 1 1 1 1 1 1 1 1 1 0 0 0 0 0 0 0 0 0 0 0 0 0 0 0 0 0 0 0 0 0 0 0 0 0 0 0 0 0 0 0 0 0 0 0 0 0 0 0 0 0 0 0 0 0 0 0 0 0 "/>
</feComponentTransfer>
<feComposite operator="in" in2="shape" in="coloredNoise1" result="noise1Clipped" />
<feFlood flood-color="rgba(0, 0, 0, 0.25)" result="color1Flood" />
<feComposite operator="in" in2="noise1Clipped" in="color1Flood" result="color1" />
<feMerge result="effect1_noise_162_141">
<feMergeNode in="shape" />
<feMergeNode in="color1" />
</feMerge>
</filter>
<filter id="filter7_di_162_141" x="1529.04" y="47.1081" width="67.0728" height="59.2148" filterUnits="userSpaceOnUse" color-interpolation-filters="sRGB">
<feFlood flood-opacity="0" result="BackgroundImageFix"/>
<feColorMatrix in="SourceAlpha" type="matrix" values="0 0 0 0 0 0 0 0 0 0 0 0 0 0 0 0 0 0 127 0" result="hardAlpha"/>
<feOffset dx="3" dy="3"/>
<feGaussianBlur stdDeviation="2"/>
<feComposite in2="hardAlpha" operator="out"/>
<feColorMatrix type="matrix" values="0 0 0 0 0 0 0 0 0 0 0 0 0 0 0 0 0 0 0.25 0"/>
<feBlend mode="normal" in2="BackgroundImageFix" result="effect1_dropShadow_162_141"/>
<feBlend mode="normal" in="SourceGraphic" in2="effect1_dropShadow_162_141" result="shape"/>
<feColorMatrix in="SourceAlpha" type="matrix" values="0 0 0 0 0 0 0 0 0 0 0 0 0 0 0 0 0 0 127 0" result="hardAlpha"/>
<feOffset dx="4" dy="4"/>
<feGaussianBlur stdDeviation="2"/>
<feComposite in2="hardAlpha" operator="arithmetic" k2="-1" k3="1"/>
<feColorMatrix type="matrix" values="0 0 0 0 1 0 0 0 0 1 0 0 0 0 1 0 0 0 0.25 0"/>
<feBlend mode="normal" in2="shape" result="effect2_innerShadow_162_141"/>
</filter>
<filter id="filter8_i_162_141" x="1537.7" y="54.7158" width="45.4785" height="39.5623" filterUnits="userSpaceOnUse" color-interpolation-filters="sRGB">
<feFlood flood-opacity="0" result="BackgroundImageFix"/>
<feBlend mode="normal" in="SourceGraphic" in2="BackgroundImageFix" result="shape"/>
<feColorMatrix in="SourceAlpha" type="matrix" values="0 0 0 0 0 0 0 0 0 0 0 0 0 0 0 0 0 0 127 0" result="hardAlpha"/>
<feOffset dx="1" dy="1"/>
<feGaussianBlur stdDeviation="2.5"/>
<feComposite in2="hardAlpha" operator="arithmetic" k2="-1" k3="1"/>
<feColorMatrix type="matrix" values="0 0 0 0 0.0941176 0 0 0 0 0.184314 0 0 0 0 0.654902 0 0 0 0.5 0"/>
<feBlend mode="normal" in2="shape" result="effect1_innerShadow_162_141"/>
</filter>
<filter id="filter9_in_162_141" x="1571.57" y="24.6718" width="308.133" height="215.998" filterUnits="userSpaceOnUse" color-interpolation-filters="sRGB">
<feFlood flood-opacity="0" result="BackgroundImageFix"/>
<feBlend mode="normal" in="SourceGraphic" in2="BackgroundImageFix" result="shape"/>
<feColorMatrix in="SourceAlpha" type="matrix" values="0 0 0 0 0 0 0 0 0 0 0 0 0 0 0 0 0 0 127 0" result="hardAlpha"/>
<feOffset dx="6" dy="5"/>
<feGaussianBlur stdDeviation="0.5"/>
<feComposite in2="hardAlpha" operator="arithmetic" k2="-1" k3="1"/>
<feColorMatrix type="matrix" values="0 0 0 0 1 0 0 0 0 1 0 0 0 0 1 0 0 0 1 0"/>
<feBlend mode="normal" in2="shape" result="effect1_innerShadow_162_141"/>
<feTurbulence type="fractalNoise" baseFrequency="2 2" stitchTiles="stitch" numOctaves="3" result="noise" seed="3327" />
<feColorMatrix in="noise" type="luminanceToAlpha" result="alphaNoise" />
<feComponentTransfer in="alphaNoise" result="coloredNoise1">
<feFuncA type="discrete" tableValues="0 0 0 0 0 0 0 0 0 0 0 0 0 0 0 0 0 0 0 0 0 0 0 0 0 1 0 0 0 0 0 0 0 0 0 0 0 0 0 0 0 0 0 0 0 0 0 0 0 0 0 0 0 0 0 0 0 0 0 0 0 0 0 0 0 0 0 0 0 0 0 0 0 0 0 0 0 0 0 0 0 0 0 0 0 0 0 0 0 0 0 0 0 0 0 0 0 0 0 0 "/>
</feComponentTransfer>
<feComposite operator="in" in2="effect1_innerShadow_162_141" in="coloredNoise1" result="noise1Clipped" />
<feFlood flood-color="rgba(0, 0, 0, 0.3)" result="color1Flood" />
<feComposite operator="in" in2="noise1Clipped" in="color1Flood" result="color1" />
<feMerge result="effect2_noise_162_141">
<feMergeNode in="effect1_innerShadow_162_141" />
<feMergeNode in="color1" />
</feMerge>
</filter>
<filter id="filter10_in_162_141" x="1655.89" y="86.9279" width="143.742" height="90.8646" filterUnits="userSpaceOnUse" color-interpolation-filters="sRGB">
<feFlood flood-opacity="0" result="BackgroundImageFix"/>
<feBlend mode="normal" in="SourceGraphic" in2="BackgroundImageFix" result="shape"/>
<feColorMatrix in="SourceAlpha" type="matrix" values="0 0 0 0 0 0 0 0 0 0 0 0 0 0 0 0 0 0 127 0" result="hardAlpha"/>
<feOffset dx="6" dy="6"/>
<feGaussianBlur stdDeviation="3.5"/>
<feComposite in2="hardAlpha" operator="arithmetic" k2="-1" k3="1"/>
<feColorMatrix type="matrix" values="0 0 0 0 0.964706 0 0 0 0 0.745098 0 0 0 0 0.0431373 0 0 0 0.7 0"/>
<feBlend mode="normal" in2="shape" result="effect1_innerShadow_162_141"/>
<feTurbulence type="fractalNoise" baseFrequency="2 2" stitchTiles="stitch" numOctaves="3" result="noise" seed="8177" />
<feColorMatrix in="noise" type="luminanceToAlpha" result="alphaNoise" />
<feComponentTransfer in="alphaNoise" result="coloredNoise1">
<feFuncA type="discrete" tableValues="1 1 1 1 1 1 1 1 1 1 1 1 1 1 1 1 1 1 1 1 1 1 1 1 1 1 1 1 1 1 1 1 1 1 1 1 1 1 1 1 1 1 1 1 1 1 1 1 1 1 1 0 0 0 0 0 0 0 0 0 0 0 0 0 0 0 0 0 0 0 0 0 0 0 0 0 0 0 0 0 0 0 0 0 0 0 0 0 0 0 0 0 0 0 0 0 0 0 0 0 "/>
</feComponentTransfer>
<feComposite operator="in" in2="effect1_innerShadow_162_141" in="coloredNoise1" result="noise1Clipped" />
<feFlood flood-color="rgba(255, 194, 31, 0.5)" result="color1Flood" />
<feComposite operator="in" in2="noise1Clipped" in="color1Flood" result="color1" />
<feMerge result="effect2_noise_162_141">
<feMergeNode in="effect1_innerShadow_162_141" />
<feMergeNode in="color1" />
</feMerge>
</filter>
<filter id="filter11_d_162_141" x="1692.9" y="109.745" width="20.2798" height="19.0616" filterUnits="userSpaceOnUse" color-interpolation-filters="sRGB">
<feFlood flood-opacity="0" result="BackgroundImageFix"/>
<feColorMatrix in="SourceAlpha" type="matrix" values="0 0 0 0 0 0 0 0 0 0 0 0 0 0 0 0 0 0 127 0" result="hardAlpha"/>
<feOffset dx="3" dy="3"/>
<feGaussianBlur stdDeviation="2"/>
<feComposite in2="hardAlpha" operator="out"/>
<feColorMatrix type="matrix" values="0 0 0 0 0 0 0 0 0 0 0 0 0 0 0 0 0 0 0.25 0"/>
<feBlend mode="normal" in2="BackgroundImageFix" result="effect1_dropShadow_162_141"/>
<feBlend mode="normal" in="SourceGraphic" in2="effect1_dropShadow_162_141" result="shape"/>
</filter>
<filter id="filter12_d_162_141" x="1738.72" y="110.363" width="21.563" height="19.1704" filterUnits="userSpaceOnUse" color-interpolation-filters="sRGB">
<feFlood flood-opacity="0" result="BackgroundImageFix"/>
<feColorMatrix in="SourceAlpha" type="matrix" values="0 0 0 0 0 0 0 0 0 0 0 0 0 0 0 0 0 0 127 0" result="hardAlpha"/>
<feOffset dx="3" dy="3"/>
<feGaussianBlur stdDeviation="2"/>
<feComposite in2="hardAlpha" operator="out"/>
<feColorMatrix type="matrix" values="0 0 0 0 0 0 0 0 0 0 0 0 0 0 0 0 0 0 0.25 0"/>
<feBlend mode="normal" in2="BackgroundImageFix" result="effect1_dropShadow_162_141"/>
<feBlend mode="normal" in="SourceGraphic" in2="effect1_dropShadow_162_141" result="shape"/>
</filter>
<filter id="filter13_n_162_141" x="1755.98" y="393.727" width="107.251" height="99.0275" filterUnits="userSpaceOnUse" color-interpolation-filters="sRGB">
<feFlood flood-opacity="0" result="BackgroundImageFix"/>
<feBlend mode="normal" in="SourceGraphic" in2="BackgroundImageFix" result="shape"/>
<feTurbulence type="fractalNoise" baseFrequency="2 2" stitchTiles="stitch" numOctaves="3" result="noise" seed="678" />
<feColorMatrix in="noise" type="luminanceToAlpha" result="alphaNoise" />
<feComponentTransfer in="alphaNoise" result="coloredNoise1">
<feFuncA type="discrete" tableValues="1 1 1 1 1 1 1 1 1 1 1 1 1 1 1 1 1 1 1 1 1 1 1 1 1 1 1 1 1 1 1 1 1 1 1 1 1 1 1 1 1 1 1 1 1 1 1 1 1 1 1 0 0 0 0 0 0 0 0 0 0 0 0 0 0 0 0 0 0 0 0 0 0 0 0 0 0 0 0 0 0 0 0 0 0 0 0 0 0 0 0 0 0 0 0 0 0 0 0 0 "/>
</feComponentTransfer>
<feComposite operator="in" in2="shape" in="coloredNoise1" result="noise1Clipped" />
<feFlood flood-color="rgba(0, 0, 0, 0.25)" result="color1Flood" />
<feComposite operator="in" in2="noise1Clipped" in="color1Flood" result="color1" />
<feMerge result="effect1_noise_162_141">
<feMergeNode in="shape" />
<feMergeNode in="color1" />
</feMerge>
</filter>
<filter id="filter14_n_162_141" x="1698.01" y="420.356" width="107.251" height="72.3179" filterUnits="userSpaceOnUse" color-interpolation-filters="sRGB">
<feFlood flood-opacity="0" result="BackgroundImageFix"/>
<feBlend mode="normal" in="SourceGraphic" in2="BackgroundImageFix" result="shape"/>
<feTurbulence type="fractalNoise" baseFrequency="2 2" stitchTiles="stitch" numOctaves="3" result="noise" seed="9736" />
<feColorMatrix in="noise" type="luminanceToAlpha" result="alphaNoise" />
<feComponentTransfer in="alphaNoise" result="coloredNoise1">
<feFuncA type="discrete" tableValues="1 1 1 1 1 1 1 1 1 1 1 1 1 1 1 1 1 1 1 1 1 1 1 1 1 1 1 1 1 1 1 1 1 1 1 1 1 1 1 1 1 1 1 1 1 1 1 1 1 1 1 0 0 0 0 0 0 0 0 0 0 0 0 0 0 0 0 0 0 0 0 0 0 0 0 0 0 0 0 0 0 0 0 0 0 0 0 0 0 0 0 0 0 0 0 0 0 0 0 0 "/>
</feComponentTransfer>
<feComposite operator="in" in2="shape" in="coloredNoise1" result="noise1Clipped" />
<feFlood flood-color="rgba(0, 0, 0, 0.25)" result="color1Flood" />
<feComposite operator="in" in2="noise1Clipped" in="color1Flood" result="color1" />
<feMerge result="effect1_noise_162_141">
<feMergeNode in="shape" />
<feMergeNode in="color1" />
</feMerge>
</filter>
<linearGradient id="paint0_linear_162_141" x1="960" y1="-363.483" x2="960" y2="1080" gradientUnits="userSpaceOnUse">
<stop stop-color="#69A7BE"/>
<stop offset="1" stop-color="#27394D"/>
</linearGradient>
<linearGradient id="paint1_linear_162_141" x1="145.658" y1="934.093" x2="131.103" y2="974.803" gradientUnits="userSpaceOnUse">
<stop stop-color="#D8D8D8"/>
<stop offset="1" stop-color="#818181"/>
</linearGradient>
<linearGradient id="paint2_linear_162_141" x1="196.834" y1="938.003" x2="194.842" y2="980.444" gradientUnits="userSpaceOnUse">
<stop stop-color="#D8D8D8"/>
<stop offset="1" stop-color="#818181"/>
</linearGradient>
<linearGradient id="paint3_linear_162_141" x1="184.627" y1="812.311" x2="186.934" y2="1021.86" gradientUnits="userSpaceOnUse">
<stop stop-color="#F8F8EB"/>
<stop offset="1" stop-color="#D4D4D4"/>
</linearGradient>
<linearGradient id="paint4_linear_162_141" x1="187.838" y1="139.674" x2="187.838" y2="250.884" gradientUnits="userSpaceOnUse">
<stop stop-color="#83BD87"/>
<stop offset="1" stop-color="#698954"/>
</linearGradient>
<linearGradient id="paint5_linear_162_141" x1="187.838" y1="213.65" x2="187.361" y2="327.74" gradientUnits="userSpaceOnUse">
<stop stop-color="#8B6C08"/>
<stop offset="1" stop-color="#744401"/>
</linearGradient>
<linearGradient id="paint6_linear_162_141" x1="83.185" y1="195.764" x2="83.185" y2="273.476" gradientUnits="userSpaceOnUse">
<stop stop-color="#83BD87"/>
<stop offset="1" stop-color="#698954"/>
</linearGradient>
<linearGradient id="paint7_linear_162_141" x1="83.1855" y1="247.458" x2="83.1855" y2="334.888" gradientUnits="userSpaceOnUse">
<stop stop-color="#8B6C08"/>
<stop offset="1" stop-color="#744401"/>
</linearGradient>
<linearGradient id="paint8_linear_162_141" x1="1570.02" y1="102.531" x2="1582.46" y2="141.536" gradientUnits="userSpaceOnUse">
<stop offset="0.221621" stop-color="#D9D9D9"/>
<stop offset="1" stop-color="#737373"/>
</linearGradient>
<linearGradient id="paint9_linear_162_141" x1="1739.79" y1="25.6293" x2="1733.11" y2="227.801" gradientUnits="userSpaceOnUse">
<stop stop-color="#F8F8EB"/>
<stop offset="1" stop-color="#C8C8BE"/>
</linearGradient>
<linearGradient id="paint10_linear_162_141" x1="1809.6" y1="393.727" x2="1809.54" y2="503.587" gradientUnits="userSpaceOnUse">
<stop stop-color="#E3D063"/>
<stop offset="1" stop-color="#7D7237"/>
</linearGradient>
<linearGradient id="paint11_linear_162_141" x1="1751.63" y1="420.356" x2="1751.7" y2="524.028" gradientUnits="userSpaceOnUse">
<stop stop-color="#998F54"/>
<stop offset="1" stop-color="#33301C"/>
</linearGradient>
</defs>
</svg>
