<svg width="1920" height="158" viewBox="0 0 1920 158" fill="none" xmlns="http://www.w3.org/2000/svg">
<rect width="1920" height="150" fill="#FFF26B"/>
<path d="M1920 148H0V55L257.778 71L757.46 53H1306.03L1553.65 -2H1920V148Z" fill="#F7E633"/>
<path d="M1421.61 105.5L1585.84 103L1654.32 112H1869.91L1918.73 114.5V136L2.53613 139V113H845.865L1421.61 105.5Z" fill="#F4BEA8"/>
<g filter="url(#filter0_d_201_132)">
<path d="M1578.98 73.4872L1581.51 88.8007L1572.5 113.626L1642.93 115.985L1638.98 100.243L1646.31 79.9303L1630.8 64.9436L1612.11 64.3177L1598.86 60.8282L1578.98 73.4872Z" fill="#F4BEA8"/>
</g>
<path d="M1600.56 89.7064C1598.78 89.5069 1597.08 89.012 1595.57 88.2545C1594.06 87.497 1592.77 86.4944 1591.78 85.3132C1590.8 84.1319 1590.14 82.7992 1589.87 81.4035C1589.59 80.0078 1589.69 78.5811 1590.16 77.2183C1590.63 75.8554 1591.47 74.5876 1592.61 73.499C1593.75 72.4105 1595.18 71.5261 1596.79 70.9048C1598.39 70.2834 1600.15 69.9392 1601.94 69.8952C1603.74 69.8511 1605.52 70.1081 1607.17 70.6491L1602.66 74.8389L1606.63 78.3379C1606.63 78.3379 1600.21 79.7177 1589.7 79.2556M1619.47 90.5382C1621.26 90.4955 1623.02 90.1527 1624.63 89.5325C1626.24 88.9124 1627.66 88.0292 1628.81 86.9415C1629.95 85.8538 1630.79 84.5866 1631.26 83.2242C1631.74 81.8617 1631.84 80.4351 1631.56 79.0392C1631.28 77.6433 1630.63 76.31 1629.65 75.128C1628.67 73.946 1627.38 72.9424 1625.87 72.1838C1624.35 71.4251 1622.66 70.9289 1620.88 70.728C1619.11 70.5271 1617.3 70.6262 1615.58 71.0187L1619.47 75.5783L1615.04 78.7076C1615.04 78.7076 1621.22 80.6419 1631.73 81.104M1605.93 88.2804L1606.16 84.9662M1614.33 88.6501L1614.57 85.3359" stroke="#AA3D10" stroke-width="4" stroke-linecap="round" stroke-linejoin="round"/>
<path d="M1609.07 103.379C1617.2 103.736 1624.02 100.687 1624.31 96.569C1624.6 92.4507 1618.25 88.8225 1610.13 88.4652C1602 88.1079 1595.18 91.1568 1594.89 95.2751C1594.6 99.3934 1600.95 103.022 1609.07 103.379Z" stroke="#AA3D10" stroke-width="4" stroke-linecap="round" stroke-linejoin="round"/>
<path d="M1588.76 92.5125C1592.97 92.6973 1594.95 94.4468 1594.95 94.4468M1588.06 102.455C1588.26 99.6379 1591.14 97.6038 1594.72 97.7609M1624.37 95.7407C1624.37 95.7407 1626.59 94.176 1630.79 94.3608M1624.14 99.0548C1627.71 99.2119 1630.29 101.486 1630.09 104.303" stroke="#AA3D10" stroke-width="4" stroke-linecap="round" stroke-linejoin="round"/>
<path d="M976.185 119.857H1.26831V137.104L1918.73 144.205V119.5L1821.08 117L1755.61 114.785L1690.87 109.205H1651.78L1514.82 114.705H1361.37L976.185 119.857Z" fill="#6DD6DD"/>
<g filter="url(#filter1_d_201_132)">
<path d="M1657.31 64.4112L1638.92 90.1597L1646.51 99.397L1642.14 109.5L1656.74 126.805L1693.17 125.378L1712 106.762L1709.23 94.5556L1707.74 70.7781L1681.61 61.0754L1657.31 64.4112Z" fill="#6DD6DD"/>
</g>
<path d="M1676.01 75.2085C1687.44 74.4713 1696.24 80.5904 1697.23 90.0803C1685.03 94.6673 1671.12 95.5647 1658.13 92.6023C1657.15 83.1125 1664.58 75.9457 1676.01 75.2085ZM1675.51 70.4636C1661.38 71.3754 1650.81 80.4163 1652.14 93.2276C1652.52 95.1139 1654.19 96.6777 1656.49 97.2458L1661.73 98.1023L1662.3 103.559C1662.33 103.874 1662.2 104.185 1661.94 104.426C1661.68 104.667 1661.31 104.816 1660.92 104.842C1660.52 104.868 1660.12 104.768 1659.82 104.563C1659.51 104.359 1659.32 104.068 1659.29 103.753C1659.3 103.429 1659.23 103.106 1659.06 102.809C1658.9 102.512 1658.65 102.249 1658.33 102.039C1658.02 101.829 1657.65 101.678 1657.25 101.597C1656.85 101.517 1656.44 101.509 1656.04 101.574C1655.62 101.562 1655.21 101.623 1654.84 101.753C1654.46 101.884 1654.13 102.08 1653.86 102.327C1653.6 102.574 1653.4 102.866 1653.3 103.181C1653.2 103.495 1653.19 103.823 1653.27 104.141C1653.31 104.91 1653.55 105.666 1653.97 106.361C1654.39 107.056 1654.99 107.678 1655.72 108.188C1656.45 108.698 1657.3 109.087 1658.23 109.331C1659.15 109.575 1660.13 109.668 1661.11 109.607L1661.41 109.587C1665.66 109.456 1668.84 106.504 1668.31 103.171L1667.87 98.9005L1670.88 98.7065L1672.28 112.23C1672.44 113.819 1669.44 114.013 1669.27 112.424C1669.29 112.099 1669.21 111.777 1669.04 111.48C1668.88 111.183 1668.63 110.919 1668.32 110.709C1668 110.499 1667.63 110.348 1667.23 110.268C1666.84 110.188 1666.42 110.18 1666.02 110.245C1665.61 110.232 1665.2 110.293 1664.82 110.424C1664.44 110.554 1664.11 110.75 1663.84 110.998C1663.58 111.245 1663.39 111.537 1663.29 111.851C1663.18 112.165 1663.17 112.494 1663.26 112.812C1663.27 116.154 1666.9 118.786 1671.11 118.514L1671.41 118.495C1675.67 118.364 1678.85 115.412 1678.32 112.079L1676.96 99.0302L1679.97 98.8362L1681.33 111.885C1681.36 112.676 1681.61 113.453 1682.05 114.165C1682.48 114.878 1683.1 115.51 1683.87 116.023C1684.64 116.535 1685.53 116.916 1686.49 117.141C1687.45 117.367 1688.46 117.431 1689.46 117.331L1689.76 117.312C1693.88 117.046 1696.88 114.13 1696.36 110.915C1696.04 107.759 1690.02 108.147 1690.35 111.303C1690.51 112.892 1687.51 113.086 1687.34 111.497L1685.94 97.9737L1688.94 97.7797L1689.39 102.05C1689.72 105.277 1693.39 107.667 1697.5 107.259L1697.8 107.24C1701.92 106.974 1704.92 104.058 1704.4 100.843C1704.07 97.6875 1698.06 98.0755 1698.39 101.231C1698.55 102.82 1695.54 103.014 1695.38 101.425L1694.81 95.9682L1699.8 94.4521C1701.88 93.5058 1703.19 91.7975 1703.27 89.9295C1701.94 77.1182 1689.65 69.5517 1675.51 70.4636ZM1676.55 80.4279C1672.23 81.6621 1668.57 84.1188 1666.36 87.2948C1665.29 88.6298 1662.74 87.3615 1663.81 86.0265C1666.45 82.3516 1670.67 79.5396 1675.7 78.0943C1675.89 78.047 1676.1 78.0313 1676.3 78.0479C1676.5 78.0644 1676.7 78.1131 1676.88 78.1908C1677.05 78.2686 1677.21 78.3739 1677.34 78.5003C1677.46 78.6268 1677.55 78.7719 1677.6 78.9268C1677.98 79.6192 1677.43 80.1325 1676.55 80.4279Z" fill="#297074"/>
<g filter="url(#filter2_d_201_132)">
<path d="M1693.31 111.38L1684.12 126.641V133L1778.71 131.304L1783.04 113.076L1762.5 101.207L1778.71 85.0978V66.8696L1750.07 63.4783L1746.28 57.5435L1721.96 55L1708.45 76.6196L1713.85 88.0652L1687.36 101.207L1693.31 111.38Z" fill="#AEE073"/>
</g>
<path d="M415.324 153.5L0 148V132.5L1507.21 127L1698.07 125.5L1808.4 129.5L1920 131.5V150H790.066L415.324 153.5Z" fill="#AEE073"/>
<path fill-rule="evenodd" clip-rule="evenodd" d="M1737.82 84.2354C1735.47 84.5912 1733.36 85.63 1731.91 87.1501C1731.28 87.8185 1730.33 88.2591 1729.29 88.3749C1728.25 88.4908 1727.19 88.2724 1726.35 87.7678C1725.51 87.2632 1724.95 86.5138 1724.81 85.6844C1724.66 84.8549 1724.94 84.0134 1725.58 83.345C1728.25 80.5402 1732.15 78.6361 1736.5 78.0111C1735.4 77.7362 1734.23 77.6624 1733.08 77.795C1732.04 77.9153 1730.98 77.7012 1730.13 77.2C1729.29 76.6987 1728.73 75.9512 1728.58 75.122C1728.43 74.2928 1728.7 73.4498 1729.33 72.7785C1729.96 72.1071 1730.9 71.6623 1731.95 71.5421C1735.09 71.1797 1738.3 71.5856 1741.15 72.706C1744 73.8264 1746.35 75.6084 1747.9 77.8159C1750.98 77.1148 1754.26 77.1396 1757.33 77.8875C1760.4 78.6353 1763.13 80.0741 1765.19 82.0298C1765.87 82.672 1766.19 83.5016 1766.1 84.3361C1766.01 85.1706 1765.5 85.9415 1764.69 86.4794C1763.88 87.0173 1762.84 87.278 1761.79 87.2043C1760.74 87.1305 1759.77 86.7282 1759.09 86.086C1758.07 85.1132 1756.73 84.3844 1755.22 83.9802C1755.45 84.2543 1755.67 84.5352 1755.87 84.8228C1757.85 87.6177 1758.38 90.9149 1757.35 94.016C1757.05 94.8038 1756.39 95.4702 1755.49 95.8738C1754.59 96.2773 1753.52 96.3863 1752.52 96.1777C1751.53 95.969 1750.67 95.459 1750.13 94.756C1749.6 94.053 1749.43 93.2122 1749.67 92.4121C1750.16 90.9161 1749.92 89.3265 1748.98 87.9704C1748.05 86.6144 1746.5 85.595 1744.64 85.1221C1742.91 86.1801 1741.41 87.7463 1740.19 89.7862C1738.79 92.1401 1737.83 95.0105 1737.33 98.145C1741.76 99.1542 1745.8 101.026 1749.09 103.59C1749.63 104.009 1749.93 104.58 1749.94 105.178C1749.95 105.777 1749.66 106.353 1749.13 106.78C1748.6 107.208 1747.88 107.451 1747.13 107.458C1746.38 107.464 1745.65 107.232 1745.11 106.813C1742.05 104.426 1738.18 102.799 1733.98 102.13C1733.82 102.113 1733.66 102.088 1733.5 102.057C1729.83 101.545 1726.06 101.778 1722.53 102.735C1719 103.692 1715.84 105.342 1713.33 107.531C1712.81 107.957 1712.11 108.207 1711.37 108.228C1710.63 108.248 1709.91 108.038 1709.36 107.641C1708.81 107.245 1708.48 106.693 1708.44 106.105C1708.4 105.517 1708.65 104.939 1709.13 104.494C1711.97 102.017 1715.49 100.086 1719.4 98.8461C1723.32 97.6066 1727.54 97.0916 1731.75 97.34C1732.31 93.9301 1733.39 90.667 1735.07 87.8542C1735.82 86.5734 1736.74 85.3601 1737.82 84.2354ZM1722.72 111.588C1722.75 110.99 1722.49 110.405 1721.99 109.962C1721.48 109.518 1720.78 109.252 1720.03 109.222C1719.27 109.192 1718.54 109.401 1717.98 109.802C1717.42 110.203 1717.09 110.764 1717.05 111.361C1717 112.045 1716.74 112.71 1716.29 113.293C1715.84 113.875 1715.21 114.358 1714.45 114.694C1713.7 115.031 1712.86 115.212 1712 115.219C1711.13 115.226 1710.28 115.06 1709.53 114.736C1709.1 114.555 1708.63 114.463 1708.15 114.467C1707.67 114.471 1707.2 114.571 1706.79 114.758C1706.37 114.945 1706.02 115.213 1705.77 115.537C1705.52 115.861 1705.37 116.23 1705.35 116.61L1705.25 118.117C1705.17 119.36 1706.37 120.42 1707.94 120.482L1762.35 122.656C1763.91 122.718 1765.25 121.76 1765.33 120.517L1765.42 119.01C1765.45 118.63 1765.35 118.251 1765.14 117.909C1764.93 117.567 1764.62 117.272 1764.23 117.053C1763.84 116.833 1763.38 116.696 1762.91 116.654C1762.43 116.612 1761.95 116.666 1761.51 116.812C1760.71 117.074 1759.84 117.172 1758.99 117.096C1758.13 117.02 1757.31 116.773 1756.61 116.378C1755.9 115.983 1755.34 115.453 1754.96 114.837C1754.58 114.222 1754.41 113.54 1754.45 112.856C1754.49 112.258 1754.23 111.673 1753.73 111.23C1753.22 110.786 1752.52 110.52 1751.77 110.49C1751.01 110.46 1750.28 110.668 1749.72 111.07C1749.16 111.471 1748.83 112.032 1748.79 112.629C1748.72 113.705 1748.11 114.714 1747.11 115.437C1746.1 116.159 1744.78 116.534 1743.43 116.48C1742.07 116.426 1740.8 115.947 1739.89 115.148C1738.99 114.35 1738.52 113.297 1738.59 112.222C1738.62 111.624 1738.36 111.039 1737.86 110.596C1737.35 110.152 1736.65 109.886 1735.9 109.856C1735.14 109.826 1734.41 110.035 1733.85 110.436C1733.29 110.837 1732.96 111.398 1732.92 111.995C1732.85 113.071 1732.24 114.08 1731.24 114.803C1730.23 115.525 1728.91 115.9 1727.56 115.846C1726.2 115.792 1724.93 115.313 1724.03 114.514C1723.12 113.716 1722.65 112.663 1722.72 111.588Z" fill="#309C44"/>
<g filter="url(#filter3_dn_201_132)">
<path d="M1763.02 111.926L1759 150.426L1771.72 154.213L1802.5 158H1843.32L1846 128.336L1837.3 89.2049L1801.16 81L1787.78 98.6721L1775.73 92.9918L1763.02 111.926Z" fill="#F6F6EA"/>
</g>
<path fill-rule="evenodd" clip-rule="evenodd" d="M1811.54 96.5431C1809.11 96.4366 1806.42 96.7075 1804.22 97.4214C1802.14 98.0932 1799.63 99.4849 1799.45 101.946C1799.34 103.555 1800.87 104.432 1801.47 104.747C1801.84 104.941 1802.25 105.122 1802.58 105.262L1802.72 105.323C1803.02 105.45 1803.31 105.579 1803.6 105.712C1804.84 106.297 1805.93 107.005 1806.44 108.427C1807.12 110.329 1806.36 111.951 1804.43 113.187C1802.38 114.494 1798.9 115.387 1794.38 115.19C1791.17 115.049 1788.51 114.64 1786.21 113.811C1783.94 112.99 1781.89 111.709 1779.98 109.664C1779.55 109.228 1778.92 108.941 1778.23 108.865C1777.53 108.79 1776.82 108.931 1776.26 109.259C1775.69 109.586 1775.31 110.075 1775.2 110.621C1775.08 111.167 1775.24 111.727 1775.64 112.182C1778.05 114.758 1780.8 116.526 1783.96 117.669C1787.09 118.803 1790.49 119.275 1794.08 119.432C1799.55 119.671 1804.47 118.627 1807.82 116.492C1811.28 114.28 1812.93 110.955 1811.63 107.278C1810.59 104.37 1808.18 102.916 1806.35 102.056L1805.47 101.667C1805.68 101.563 1805.94 101.458 1806.27 101.351C1807.58 100.925 1809.43 100.707 1811.24 100.786C1817.83 101.074 1821.52 102.937 1823.73 104.906C1825.99 106.919 1826.93 109.207 1827.59 110.826L1827.62 110.909C1829.05 114.41 1829.44 117.944 1829.35 121.665C1829.34 122.229 1829.61 122.773 1830.11 123.179C1830.61 123.585 1831.29 123.819 1832 123.829C1832.72 123.839 1833.41 123.624 1833.92 123.233C1834.44 122.841 1834.73 122.304 1834.75 121.741C1834.84 117.741 1834.42 113.698 1832.75 109.601L1832.67 109.424C1832.01 107.795 1830.78 104.779 1827.76 102.09C1824.54 99.2184 1819.48 96.8899 1811.54 96.5431ZM1787.27 123.128C1788.74 122.523 1790.4 122.256 1792.06 122.357C1794 122.442 1795.49 122.881 1796.71 123.541C1797.8 124.127 1798.62 124.857 1799.27 125.427L1799.39 125.538C1800.1 126.168 1800.64 126.62 1801.33 126.964C1801.96 127.281 1802.82 127.55 1804.17 127.608C1805.51 127.667 1806.4 127.475 1807.08 127.215C1807.8 126.933 1808.41 126.531 1809.2 125.966L1809.33 125.87C1810.18 125.229 1811.12 124.674 1812.14 124.215C1813.61 123.61 1815.27 123.343 1816.93 123.444C1818.87 123.529 1820.36 123.968 1821.58 124.628C1822.67 125.213 1823.5 125.944 1824.14 126.513L1824.26 126.624C1824.97 127.255 1825.51 127.707 1826.2 128.05C1826.84 128.368 1827.69 128.637 1829.04 128.695L1832.14 128.831C1832.72 128.856 1833.25 129.059 1833.63 129.395C1834.01 129.731 1834.21 130.172 1834.18 130.622L1833.81 135.904L1828.55 135.674C1827.28 135.619 1826.52 135.374 1825.97 135.095C1825.35 134.789 1824.85 134.379 1824.14 133.749L1824.01 133.634C1823.24 132.899 1822.35 132.243 1821.37 131.68C1819.91 130.908 1818.2 130.473 1816.44 130.423C1814.41 130.334 1812.77 130.661 1811.37 131.246C1810.31 131.716 1809.33 132.29 1808.46 132.954L1808.32 133.057C1807.52 133.622 1806.97 133.986 1806.32 134.236C1805.73 134.466 1804.94 134.642 1803.67 134.587C1802.41 134.532 1801.65 134.288 1801.09 134.008C1800.48 133.702 1799.99 133.292 1799.28 132.662L1799.15 132.547C1798.51 131.981 1797.64 131.212 1796.5 130.593C1795.04 129.821 1793.33 129.386 1791.57 129.336C1789.54 129.247 1787.9 129.574 1786.49 130.159C1785.44 130.629 1784.46 131.203 1783.59 131.868L1783.45 131.97C1782.65 132.535 1782.1 132.899 1781.45 133.149C1780.86 133.379 1780.06 133.555 1778.8 133.5L1773.54 133.27L1773.91 127.992C1773.95 127.542 1774.2 127.12 1774.63 126.82C1775.05 126.519 1775.61 126.364 1776.19 126.389L1779.29 126.525C1780.64 126.584 1781.53 126.391 1782.21 126.131C1782.93 125.85 1783.54 125.447 1784.33 124.883L1784.47 124.787C1785.31 124.143 1786.25 123.587 1787.27 123.132M1828.25 139.92L1833.51 140.15L1833.33 142.611C1833.3 143.061 1833.05 143.483 1832.62 143.783C1832.19 144.084 1831.63 144.239 1831.06 144.214C1831.06 144.214 1813.96 144.314 1803.02 143.836C1792.09 143.359 1775.11 141.765 1775.11 141.765C1774.53 141.74 1774 141.538 1773.62 141.202C1773.24 140.866 1773.04 140.424 1773.07 139.974L1773.25 137.513L1778.51 137.743C1780.63 137.836 1782.35 137.537 1783.82 136.967C1785.23 136.423 1786.28 135.679 1787.05 135.131C1787.89 134.531 1788.41 134.169 1789.02 133.913C1789.54 133.697 1790.2 133.532 1791.27 133.579C1792.34 133.625 1792.98 133.847 1793.46 134.107C1794.03 134.414 1794.49 134.819 1795.25 135.489C1795.94 136.098 1796.88 136.932 1798.2 137.593C1799.58 138.286 1801.25 138.737 1803.38 138.83C1805.5 138.923 1807.22 138.623 1808.69 138.054C1810.1 137.51 1811.15 136.766 1811.92 136.217C1812.76 135.618 1813.28 135.256 1813.89 135C1814.59 134.72 1815.37 134.604 1816.14 134.666C1817.22 134.713 1817.85 134.934 1818.33 135.194C1818.9 135.501 1819.36 135.906 1820.12 136.576C1820.81 137.185 1821.75 138.019 1823.08 138.68C1824.45 139.373 1826.12 139.824 1828.25 139.917" fill="#636C6D"/>
<defs>
<filter id="filter0_d_201_132" x="1572.5" y="60.8282" width="76.8184" height="57.1567" filterUnits="userSpaceOnUse" color-interpolation-filters="sRGB">
<feFlood flood-opacity="0" result="BackgroundImageFix"/>
<feColorMatrix in="SourceAlpha" type="matrix" values="0 0 0 0 0 0 0 0 0 0 0 0 0 0 0 0 0 0 127 0" result="hardAlpha"/>
<feOffset dx="3" dy="2"/>
<feComposite in2="hardAlpha" operator="out"/>
<feColorMatrix type="matrix" values="0 0 0 0 0.498039 0 0 0 0 0.294118 0 0 0 0 0.14902 0 0 0 1 0"/>
<feBlend mode="normal" in2="BackgroundImageFix" result="effect1_dropShadow_201_132"/>
<feBlend mode="normal" in="SourceGraphic" in2="effect1_dropShadow_201_132" result="shape"/>
</filter>
<filter id="filter1_d_201_132" x="1638.92" y="61.0754" width="75.0815" height="67.7297" filterUnits="userSpaceOnUse" color-interpolation-filters="sRGB">
<feFlood flood-opacity="0" result="BackgroundImageFix"/>
<feColorMatrix in="SourceAlpha" type="matrix" values="0 0 0 0 0 0 0 0 0 0 0 0 0 0 0 0 0 0 127 0" result="hardAlpha"/>
<feOffset dx="2" dy="2"/>
<feComposite in2="hardAlpha" operator="out"/>
<feColorMatrix type="matrix" values="0 0 0 0 0.498039 0 0 0 0 0.294118 0 0 0 0 0.14902 0 0 0 1 0"/>
<feBlend mode="normal" in2="BackgroundImageFix" result="effect1_dropShadow_201_132"/>
<feBlend mode="normal" in="SourceGraphic" in2="effect1_dropShadow_201_132" result="shape"/>
</filter>
<filter id="filter2_d_201_132" x="1684.12" y="55" width="99.917" height="80" filterUnits="userSpaceOnUse" color-interpolation-filters="sRGB">
<feFlood flood-opacity="0" result="BackgroundImageFix"/>
<feColorMatrix in="SourceAlpha" type="matrix" values="0 0 0 0 0 0 0 0 0 0 0 0 0 0 0 0 0 0 127 0" result="hardAlpha"/>
<feOffset dx="1" dy="2"/>
<feComposite in2="hardAlpha" operator="out"/>
<feColorMatrix type="matrix" values="0 0 0 0 0.498039 0 0 0 0 0.294118 0 0 0 0 0.14902 0 0 0 1 0"/>
<feBlend mode="normal" in2="BackgroundImageFix" result="effect1_dropShadow_201_132"/>
<feBlend mode="normal" in="SourceGraphic" in2="effect1_dropShadow_201_132" result="shape"/>
</filter>
<filter id="filter3_dn_201_132" x="1759" y="81" width="89" height="77" filterUnits="userSpaceOnUse" color-interpolation-filters="sRGB">
<feFlood flood-opacity="0" result="BackgroundImageFix"/>
<feColorMatrix in="SourceAlpha" type="matrix" values="0 0 0 0 0 0 0 0 0 0 0 0 0 0 0 0 0 0 127 0" result="hardAlpha"/>
<feOffset dx="2"/>
<feComposite in2="hardAlpha" operator="out"/>
<feColorMatrix type="matrix" values="0 0 0 0 0.498039 0 0 0 0 0.294118 0 0 0 0 0.14902 0 0 0 1 0"/>
<feBlend mode="normal" in2="BackgroundImageFix" result="effect1_dropShadow_201_132"/>
<feBlend mode="normal" in="SourceGraphic" in2="BackgroundImageFix" result="shape"/>
<feTurbulence type="fractalNoise" baseFrequency="2 2" stitchTiles="stitch" numOctaves="3" result="noise" seed="1730" />
<feColorMatrix in="noise" type="luminanceToAlpha" result="alphaNoise" />
<feComponentTransfer in="alphaNoise" result="coloredNoise1">
<feFuncA type="discrete" tableValues="1 1 1 1 1 1 1 1 1 1 1 1 1 1 1 1 1 1 1 1 1 1 1 1 1 1 1 1 1 1 1 1 1 1 1 1 1 1 1 1 1 1 1 1 1 1 1 1 1 1 1 0 0 0 0 0 0 0 0 0 0 0 0 0 0 0 0 0 0 0 0 0 0 0 0 0 0 0 0 0 0 0 0 0 0 0 0 0 0 0 0 0 0 0 0 0 0 0 0 0 "/>
</feComponentTransfer>
<feComposite operator="in" in2="shape" in="coloredNoise1" result="noise1Clipped" />
<feFlood flood-color="rgba(227, 227, 227, 0.25)" result="color1Flood" />
<feComposite operator="in" in2="noise1Clipped" in="color1Flood" result="color1" />
<feMerge result="effect2_noise_201_132">
<feMergeNode in="shape" />
<feMergeNode in="color1" />
</feMerge>
<feBlend mode="normal" in="effect2_noise_201_132" in2="effect1_dropShadow_201_132" result="effect2_noise_201_132"/>
</filter>
</defs>
</svg>
